<svg width="270" height="74" viewBox="0 0 270 74" fill="none" xmlns="http://www.w3.org/2000/svg">
<path d="M0.5 15.8769L8.56068 6.93481H67V51.7826H8.57903L0.5 41.6512V15.8769Z" fill="white" stroke="black"/>
<rect x="67.5" y="6.43481" width="59.1618" height="45.8478" fill="#4237C1"/>
<rect x="126.662" y="6.43481" width="8.33823" height="67.5652" fill="#4237C1"/>
<path d="M79.4699 16.489H97.2792V42.2281H79.4699L73.0586 36.3578V21.682L79.4699 16.489Z" fill="white"/>
<rect x="101.25" y="16.489" width="20.6471" height="25.7391" fill="white"/>
<path d="M27 52.2827H126.662V74.0001H109.624V61.5327H95.3343V74.0001H74.2661V61.5327H61.0755V74.0001H43.4882V61.5327H35.7937L27 52.2827Z" fill="#C4C4C4"/>
<path d="M135 18.0979H143.735V26.7446H190.985V34.3859H143.735V45.4457H135V18.0979Z" fill="#C4C4C4"/>
<path d="M152.074 55.2989H190.985V40.4185H246.574L252.133 48.2608V74H152.074V55.2989Z" fill="#4237C1"/>
<path d="M199.824 38.913V22.1126L207.088 14.1738H264.904L269.5 22.0536V33.794L264.966 38.913H199.824Z" fill="white" stroke="black"/>
<rect x="190.985" y="21.3152" width="8.33823" height="18.0978" fill="#4237C1"/>
<path d="M183.838 0H205.28V13.9445L198.517 21.3152H192.25L183.838 13.9445V0Z" fill="#4237C1"/>

<rect x="185.029" y="3.61963" width="3.17645" height="2.81522" fill="white"/>
<path d="M135 48.261H190.787V55.5001H152.074V74.0001H135V48.261Z" fill="#C4C4C4"/>
<path d="M60.75 61.5327H67.5V68.9729H74.25V74.0001H60.75V61.5327Z" fill="#363636"/>
<path d="M94.5 61.5327H102.044V68.9729H109.588V74.0001H94.5V61.5327Z" fill="#363636"/>
</svg>
