<svg width="438" height="360" viewBox="0 0 438 360" fill="none" xmlns="http://www.w3.org/2000/svg">
<g clip-path="url(#clip0_55_342)">
<rect x="0.5" y="63.5" width="437" height="127" fill="#C4C4C4" stroke="#393939"/>
<rect x="14.5" y="78.5" width="409" height="112" fill="#FAFAFB" stroke="#393939"/>
<rect y="191" width="438" height="128" fill="#4237C1"/>
<rect x="20" y="210" width="395" height="109" fill="#FAFAFB"/>
<rect x="18" y="282" width="397" height="21" fill="#4237C1"/>
<rect x="213.5" y="201.5" width="169" height="91" rx="5.5" fill="#C4C4C4" stroke="#393939" stroke-width="3"/>
<rect x="383" y="238" width="3" height="26" rx="1.5" fill="#393939"/>
<rect x="211" y="238" width="3" height="26" rx="1.5" fill="#393939"/>
<rect x="283" y="218" width="8" height="29" rx="4" transform="rotate(-90 283 218)" fill="#C4C4C4"/>
<rect x="294" y="216" width="4" height="15" rx="2" transform="rotate(-90 294 216)" fill="#888888"/>
<circle cx="289" cy="214" r="2" transform="rotate(-90 289 214)" fill="#888888"/>
<rect x="281.5" y="0.5" width="156" height="62" fill="#C4C4C4" stroke="#393939"/>
<rect x="292" y="11" width="58" height="40" fill="#1F1F1F"/>
<rect x="297" y="16" width="48" height="30" fill="#6B6B6B"/>
<path d="M403 20H413V28C413 30.7614 410.761 33 408 33V33C405.239 33 403 30.7614 403 28V20Z" fill="#E2E2E2"/>
<path d="M403 5H413V13C413 15.7614 410.761 18 408 18V18C405.239 18 403 15.7614 403 13V5Z" fill="#E2E2E2"/>
<path d="M387 5H397V13C397 15.7614 394.761 18 392 18V18C389.239 18 387 15.7614 387 13V5Z" fill="#E2E2E2"/>
<path d="M387 20H397V28C397 30.7614 394.761 33 392 33V33C389.239 33 387 30.7614 387 28V20Z" fill="#E2E2E2"/>
<path d="M371 20H381V28C381 30.7614 378.761 33 376 33V33C373.239 33 371 30.7614 371 28V20Z" fill="#E2E2E2"/>
<path d="M371 38H381V46C381 48.7614 378.761 51 376 51V51C373.239 51 371 48.7614 371 46V38Z" fill="#E2E2E2"/>
<path d="M387 38H397V46C397 48.7614 394.761 51 392 51V51C389.239 51 387 48.7614 387 46V38Z" fill="#E2E2E2"/>
<path d="M403 38H413V46C413 48.7614 410.761 51 408 51V51C405.239 51 403 48.7614 403 46V38Z" fill="#E2E2E2"/>
<circle cx="376" cy="29" r="4.5" fill="#31BE00" stroke="#FAFAFB"/>
<circle cx="376" cy="46" r="4.5" fill="#31BE00" stroke="#FAFAFB"/>
<circle cx="392" cy="46" r="4.5" fill="#31BE00" stroke="#FAFAFB"/>
<circle cx="408" cy="46" r="4.5" fill="#31BE00" stroke="#FAFAFB"/>
<circle cx="408" cy="29" r="4.5" fill="#C57B26" stroke="#FAFAFB"/>
<circle cx="408" cy="29" r="4.5" fill="#C57B26" stroke="#FAFAFB"/>
<circle cx="392" cy="29" r="4.5" fill="#C52626" stroke="#FAFAFB"/>
<circle cx="392" cy="13" r="4.5" fill="#31BE00" stroke="black"/>
<circle cx="408" cy="13" r="4.5" fill="#C52626" stroke="black"/>
<path d="M418 20H428V28C428 30.7614 425.761 33 423 33V33C420.239 33 418 30.7614 418 28V20Z" fill="#E2E2E2"/>
<path d="M418 38H428V46C428 48.7614 425.761 51 423 51V51C420.239 51 418 48.7614 418 46V38Z" fill="#E2E2E2"/>
<circle cx="423" cy="47" r="5.75" fill="#C52626" stroke="#FF5656" stroke-width="0.5"/>
<circle cx="423" cy="28" r="4.5" fill="black" stroke="#FAFAFB"/>
<rect x="422" y="23" width="2" height="6" rx="1" fill="#FAFAFB"/>
<rect x="210.5" y="78.5" width="19" height="112" fill="#C4C4C4" stroke="black"/>
<rect y="143" width="76" height="14" fill="#4237C1"/>
<rect x="154" y="143" width="76" height="14" fill="#4237C1"/>
<rect x="230" y="157" width="195" height="9" fill="#484848"/>
<rect x="259" y="151" width="125" height="6" fill="#4237C1"/>
<rect x="38" y="184" width="150" height="7" fill="#C4C4C4"/>
<rect x="253" y="184" width="153" height="7" fill="#C4C4C4"/>
<rect x="25" y="78" width="42" height="3" fill="#4237C1"/>
<rect x="38" y="81" width="16" height="5" fill="#484848"/>
<rect x="44" y="86" width="5" height="3" fill="#C4C4C4"/>
<rect x="45" y="157" width="3" height="3" fill="#C4C4C4"/>
<rect x="38" y="89" width="17" height="8" fill="#4237C1"/>
<path d="M41 97H52V143H41V97Z" fill="#C4C4C4"/>
<rect x="39" y="160" width="15" height="10" fill="#C4C4C4"/>
<rect x="158" y="78" width="42" height="3" fill="#4237C1"/>
<rect x="171" y="81" width="16" height="5" fill="#484848"/>
<rect x="177" y="86" width="5" height="3" fill="#C4C4C4"/>
<rect x="178" y="157" width="3" height="3" fill="#C4C4C4"/>
<rect x="171" y="89" width="17" height="8" fill="#4237C1"/>
<path d="M174 97H185V143H174V97Z" fill="#C4C4C4"/>
<rect x="172" y="160" width="15" height="10" fill="#C4C4C4"/>
<rect x="300" y="77" width="42" height="3" fill="#4237C1"/>
<rect x="313" y="80" width="16" height="5" fill="#484848"/>
<rect x="319" y="85" width="5" height="3" fill="#C4C4C4"/>
<rect x="320" y="145" width="3" height="6" fill="#C4C4C4"/>
<rect x="313" y="88" width="17" height="8" fill="#4237C1"/>
<path d="M316 96H327V145H316V96Z" fill="#C4C4C4"/>
<g filter="url(#filter0_d_55_342)">
<path d="M97.1133 338.672H100.834L106.312 354.331L111.791 338.672H115.512L107.807 360H104.818L97.1133 338.672ZM95.1064 338.672H98.8125L99.4863 353.936V360H95.1064V338.672ZM113.812 338.672H117.533V360H113.139V353.936L113.812 338.672ZM130.321 342.319L124.521 360H119.848L127.772 338.672H130.746L130.321 342.319ZM135.141 360L129.325 342.319L128.856 338.672H131.859L139.828 360H135.141ZM134.877 352.061V355.503H123.612V352.061H134.877ZM127.846 337.471L130.717 332.959H135.302L131.273 337.471H127.846ZM142.802 338.672L147.255 348.398L151.708 338.672H156.498L149.481 352.236V360H145.028V352.236L137.997 338.672H142.802ZM174.662 338.672V360H170.282V338.672H174.662ZM181.225 338.672V342.114H163.822V338.672H181.225ZM190.819 342.319L185.019 360H180.346L188.271 338.672H191.244L190.819 342.319ZM195.639 360L189.823 342.319L189.354 338.672H192.357L200.326 360H195.639ZM195.375 352.061V355.503H184.11V352.061H195.375ZM188.065 363.354C188.065 362.788 188.28 362.314 188.71 361.934C189.14 361.562 189.716 361.377 190.438 361.377C191.151 361.377 191.723 361.562 192.152 361.934C192.592 362.314 192.812 362.788 192.812 363.354C192.812 363.911 192.592 364.38 192.152 364.761C191.723 365.142 191.151 365.332 190.438 365.332C189.716 365.332 189.14 365.142 188.71 364.761C188.28 364.38 188.065 363.911 188.065 363.354ZM204.311 338.672H208.031L213.51 354.331L218.988 338.672H222.709L215.004 360H212.016L204.311 338.672ZM202.304 338.672H206.01L206.684 353.936V360H202.304V338.672ZM221.01 338.672H224.73V360H220.336V353.936L221.01 338.672ZM253.412 338.672V360H249.018L240.448 345.703V360H236.054V338.672H240.448L249.032 352.983V338.672H253.412ZM274.14 348.853V357.305C273.808 357.705 273.295 358.14 272.602 358.608C271.908 359.067 271.015 359.463 269.921 359.795C268.827 360.127 267.504 360.293 265.951 360.293C264.574 360.293 263.319 360.068 262.187 359.619C261.054 359.16 260.077 358.491 259.257 357.612C258.446 356.733 257.821 355.659 257.382 354.39C256.942 353.11 256.723 351.65 256.723 350.01V348.677C256.723 347.036 256.933 345.576 257.353 344.297C257.782 343.018 258.393 341.938 259.184 341.06C259.975 340.181 260.917 339.512 262.011 339.053C263.104 338.594 264.32 338.364 265.658 338.364C267.514 338.364 269.037 338.667 270.229 339.272C271.42 339.868 272.328 340.698 272.953 341.763C273.588 342.817 273.979 344.028 274.125 345.396H269.862C269.755 344.673 269.55 344.043 269.247 343.506C268.944 342.969 268.51 342.549 267.943 342.246C267.387 341.943 266.664 341.792 265.775 341.792C265.043 341.792 264.389 341.943 263.812 342.246C263.246 342.539 262.768 342.974 262.377 343.55C261.986 344.126 261.688 344.839 261.483 345.688C261.278 346.538 261.176 347.524 261.176 348.647V350.01C261.176 351.123 261.283 352.109 261.498 352.969C261.713 353.818 262.03 354.536 262.45 355.122C262.88 355.698 263.407 356.133 264.032 356.426C264.657 356.719 265.385 356.865 266.215 356.865C266.908 356.865 267.484 356.807 267.943 356.689C268.412 356.572 268.788 356.431 269.071 356.265C269.364 356.089 269.589 355.923 269.745 355.767V351.987H265.731V348.853H274.14ZM296.713 337.485H299.496C299.496 338.921 299.311 340.146 298.939 341.162C298.568 342.168 297.929 342.939 297.021 343.477C296.122 344.004 294.877 344.268 293.285 344.268V341.997C294.32 341.997 295.082 341.821 295.57 341.47C296.059 341.108 296.371 340.591 296.508 339.917C296.645 339.243 296.713 338.433 296.713 337.485ZM289.462 338.672H293.842V352.764C293.842 354.404 293.49 355.786 292.787 356.909C292.094 358.032 291.132 358.877 289.901 359.443C288.681 360.01 287.274 360.293 285.683 360.293C284.091 360.293 282.675 360.01 281.435 359.443C280.204 358.877 279.237 358.032 278.534 356.909C277.841 355.786 277.494 354.404 277.494 352.764V338.672H281.889V352.764C281.889 353.721 282.04 354.502 282.343 355.107C282.646 355.713 283.08 356.157 283.646 356.44C284.223 356.724 284.901 356.865 285.683 356.865C286.483 356.865 287.162 356.724 287.719 356.44C288.285 356.157 288.715 355.713 289.008 355.107C289.311 354.502 289.462 353.721 289.462 352.764V338.672ZM285.463 332.783L288.349 337.295H284.892L280.878 332.783H285.463ZM316.43 338.672V360H312.035L303.466 345.703V360H299.071V338.672H303.466L312.05 352.983V338.672H316.43ZM337.157 348.853V357.305C336.825 357.705 336.312 358.14 335.619 358.608C334.926 359.067 334.032 359.463 332.938 359.795C331.845 360.127 330.521 360.293 328.969 360.293C327.592 360.293 326.337 360.068 325.204 359.619C324.071 359.16 323.095 358.491 322.274 357.612C321.464 356.733 320.839 355.659 320.399 354.39C319.96 353.11 319.74 351.65 319.74 350.01V348.677C319.74 347.036 319.95 345.576 320.37 344.297C320.8 343.018 321.41 341.938 322.201 341.06C322.992 340.181 323.935 339.512 325.028 339.053C326.122 338.594 327.338 338.364 328.676 338.364C330.531 338.364 332.055 338.667 333.246 339.272C334.438 339.868 335.346 340.698 335.971 341.763C336.605 342.817 336.996 344.028 337.143 345.396H332.88C332.772 344.673 332.567 344.043 332.265 343.506C331.962 342.969 331.527 342.549 330.961 342.246C330.404 341.943 329.682 341.792 328.793 341.792C328.061 341.792 327.406 341.943 326.83 342.246C326.264 342.539 325.785 342.974 325.395 343.55C325.004 344.126 324.706 344.839 324.501 345.688C324.296 346.538 324.193 347.524 324.193 348.647V350.01C324.193 351.123 324.301 352.109 324.516 352.969C324.73 353.818 325.048 354.536 325.468 355.122C325.897 355.698 326.425 356.133 327.05 356.426C327.675 356.719 328.402 356.865 329.232 356.865C329.926 356.865 330.502 356.807 330.961 356.689C331.43 356.572 331.806 356.431 332.089 356.265C332.382 356.089 332.606 355.923 332.763 355.767V351.987H328.749V348.853H337.157Z" fill="#FF0000"/>
</g>
</g>
<defs>
<filter id="filter0_d_55_342" x="91.1064" y="332.783" width="250.051" height="40.5488" filterUnits="userSpaceOnUse" color-interpolation-filters="sRGB">
<feFlood flood-opacity="0" result="BackgroundImageFix"/>
<feColorMatrix in="SourceAlpha" type="matrix" values="0 0 0 0 0 0 0 0 0 0 0 0 0 0 0 0 0 0 127 0" result="hardAlpha"/>
<feOffset dy="4"/>
<feGaussianBlur stdDeviation="2"/>
<feComposite in2="hardAlpha" operator="out"/>
<feColorMatrix type="matrix" values="0 0 0 0 0 0 0 0 0 0 0 0 0 0 0 0 0 0 0.25 0"/>
<feBlend mode="normal" in2="BackgroundImageFix" result="effect1_dropShadow_55_342"/>
<feBlend mode="normal" in="SourceGraphic" in2="effect1_dropShadow_55_342" result="shape"/>
</filter>
<clipPath id="clip0_55_342">
<rect width="438" height="360" fill="white"/>
</clipPath>
</defs>
</svg>
