<svg width="268" height="615" viewBox="0 0 268 615" fill="none" xmlns="http://www.w3.org/2000/svg">
<g clip-path="url(#clip0_55_168)">
<rect x="21" y="517" width="16" height="25" rx="8" fill="#DE6B00"/>
<rect x="26" y="520" width="6" height="19" rx="3" fill="black"/>
<rect x="230" y="517" width="16" height="25" rx="8" fill="#DE6B00"/>
<rect x="235" y="520" width="6" height="19" rx="3" fill="black"/>
<rect x="55.1509" y="63.63" width="5" height="85.8279" rx="2.5" transform="rotate(4.28585 55.1509 63.63)" fill="#727272"/>
<rect x="1" y="235" width="267" height="295" fill="#C09E44"/>
<path d="M62.5 106.5H207.5L233.5 162V170.5H237.5L268 235H1L32 170.5H36V162L62.5 106.5Z" fill="#686868"/>
<rect x="63" y="58" width="145" height="49" fill="#C4C4C4"/>
<rect x="68" y="61" width="136" height="43" fill="#F3F3F3"/>
<path d="M36 162H233.5V170.5H36L36 162Z" fill="#111111"/>
<circle cx="57.5" cy="65.5" r="1.5" fill="#C4C4C4"/>
<rect x="57" y="67" width="3" height="145" rx="1.5" transform="rotate(-90 57 67)" fill="#727272"/>
<rect x="34" y="357" width="13" height="47" rx="6.5" fill="#C4C4C4"/>
<rect x="37" y="375" width="7" height="24" rx="3.5" fill="#888888"/>
<circle cx="40.5" cy="366.5" r="3.5" fill="#888888"/>
<path d="M41.799 336.25L49.1603 349C49.7376 350 49.0159 351.25 47.8612 351.25H33.1388C31.9841 351.25 31.2624 350 31.8397 349L39.201 336.25C39.7783 335.25 41.2217 335.25 41.799 336.25Z" fill="#FFF502" stroke="black"/>
<path d="M41.1152 340.469L41.0391 346.592H40.0605L39.9785 340.469H41.1152ZM39.9434 348.455C39.9434 348.279 39.9961 348.131 40.1016 348.01C40.2109 347.889 40.3711 347.828 40.582 347.828C40.7891 347.828 40.9473 347.889 41.0566 348.01C41.1699 348.131 41.2266 348.279 41.2266 348.455C41.2266 348.623 41.1699 348.768 41.0566 348.889C40.9473 349.01 40.7891 349.07 40.582 349.07C40.3711 349.07 40.2109 349.01 40.1016 348.889C39.9961 348.768 39.9434 348.623 39.9434 348.455Z" fill="black"/>
<path d="M130.708 143.652C130.877 142.697 131.707 142 132.678 142H135.322C136.293 142 137.123 142.697 137.292 143.652L139.586 156.652C139.802 157.877 138.86 159 137.616 159H130.384C129.14 159 128.198 157.877 128.414 156.652L130.708 143.652Z" fill="black"/>
<circle cx="134" cy="146" r="2" fill="#C4C4C4"/>
<path d="M180.75 69.2043C180.75 88.2712 175.614 100.138 167.364 107.245C159.106 114.359 147.679 116.75 135 116.75C122.321 116.75 110.894 114.359 102.636 107.245C94.386 100.138 89.25 88.2712 89.25 69.2043C89.25 50.1363 94.3878 32.8849 102.681 20.4078C110.976 7.92894 122.407 0.25 135 0.25C147.593 0.25 159.024 7.92894 167.319 20.4078C175.612 32.8849 180.75 50.1363 180.75 69.2043Z" fill="#F3F3F3" stroke="black" stroke-width="0.5"/>
<path d="M177.75 68.6553C177.75 86.7434 172.949 97.9977 165.241 104.737C157.526 111.482 146.85 113.75 135 113.75C123.15 113.75 112.474 111.482 104.759 104.737C97.0509 97.9977 92.25 86.7434 92.25 68.6553C92.25 50.5667 97.0524 34.202 104.804 22.367C112.556 10.5298 123.238 3.25 135 3.25C146.762 3.25 157.444 10.5298 165.196 22.367C172.948 34.202 177.75 50.5667 177.75 68.6553Z" fill="white" stroke="black" stroke-width="0.5"/>
<path d="M161.75 67.5872C161.75 79.3101 158.849 86.5835 154.214 90.9314C149.576 95.2817 143.152 96.75 136 96.75C128.848 96.75 122.424 95.2817 117.786 90.9314C113.151 86.5835 110.25 79.3101 110.25 67.5872C110.25 55.8654 113.151 45.2653 117.829 37.6038C122.509 29.938 128.94 25.25 136 25.25C143.06 25.25 149.491 29.938 154.171 37.6038C158.849 45.2653 161.75 55.8654 161.75 67.5872Z" fill="#F3F3F3" stroke="black" stroke-width="0.5"/>
<rect x="168.91" y="33.3102" width="5.5" height="11.0446" rx="2.75" transform="rotate(73.6787 168.91 33.3102)" fill="#F3F3F3" stroke="black" stroke-width="0.5"/>
<rect x="0.169669" y="0.310181" width="5.5" height="11.0446" rx="2.75" transform="matrix(-0.281024 0.959701 0.959701 0.281024 100.606 33.0602)" fill="#F3F3F3" stroke="black" stroke-width="0.5"/>
<rect x="-0.169669" y="-0.310181" width="5.5" height="11.0446" rx="2.75" transform="matrix(0.281024 -0.959701 -0.959701 -0.281024 168.66 96.4423)" fill="#F3F3F3" stroke="black" stroke-width="0.5"/>
<rect x="109.91" y="88.3102" width="5.5" height="11.0446" rx="2.75" transform="rotate(73.6787 109.91 88.3102)" fill="#F3F3F3" stroke="black" stroke-width="0.5"/>
<rect x="102.25" y="112.25" width="64.5" height="9.5" rx="3.75" fill="#F3F3F3" stroke="black" stroke-width="0.5"/>
<line x1="80" y1="121" x2="189" y2="121" stroke="black" stroke-width="2"/>
</g>
<defs>
<clipPath id="clip0_55_168">
<rect width="268" height="615" fill="white"/>
</clipPath>
</defs>
</svg>
