<svg width="268" height="615" viewBox="0 0 268 615" fill="none" xmlns="http://www.w3.org/2000/svg">
<g clip-path="url(#clip0_55_168)">
<rect x="21" y="517" width="16" height="25" rx="8" fill="#DE6B00"/>
<rect x="26" y="520" width="6" height="19" rx="3" fill="black"/>
<rect x="230" y="517" width="16" height="25" rx="8" fill="#DE6B00"/>
<rect x="235" y="520" width="6" height="19" rx="3" fill="black"/>
<rect x="55.1509" y="63.63" width="5" height="85.8279" rx="2.5" transform="rotate(4.28585 55.1509 63.63)" fill="#727272"/>
<rect x="1" y="235" width="267" height="295" fill="#C09E44"/>
<path d="M62.5 106.5H207.5L233.5 162V170.5H237.5L268 235H1L32 170.5H36V162L62.5 106.5Z" fill="#686868"/>
<rect x="63" y="58" width="145" height="49" fill="#C4C4C4"/>
<rect x="68" y="61" width="136" height="43" fill="#F3F3F3"/>
<path d="M36 162H233.5V170.5H36L36 162Z" fill="#111111"/>
<circle cx="57.5" cy="65.5" r="1.5" fill="#C4C4C4"/>
<rect x="57" y="67" width="3" height="145" rx="1.5" transform="rotate(-90 57 67)" fill="#727272"/>
<rect x="34" y="357" width="13" height="47" rx="6.5" fill="#C4C4C4"/>
<rect x="37" y="375" width="7" height="24" rx="3.5" fill="#888888"/>
<circle cx="40.5" cy="366.5" r="3.5" fill="#888888"/>
<path d="M41.799 336.25L49.1603 349C49.7376 350 49.0159 351.25 47.8612 351.25H33.1388C31.9841 351.25 31.2624 350 31.8397 349L39.201 336.25C39.7783 335.25 41.2217 335.25 41.799 336.25Z" fill="#FFF502" stroke="black"/>
<path d="M41.1152 340.469L41.0391 346.592H40.0605L39.9785 340.469H41.1152ZM39.9434 348.455C39.9434 348.279 39.9961 348.131 40.1016 348.01C40.2109 347.889 40.3711 347.828 40.582 347.828C40.7891 347.828 40.9473 347.889 41.0566 348.01C41.1699 348.131 41.2266 348.279 41.2266 348.455C41.2266 348.623 41.1699 348.768 41.0566 348.889C40.9473 349.01 40.7891 349.07 40.582 349.07C40.3711 349.07 40.2109 349.01 40.1016 348.889C39.9961 348.768 39.9434 348.623 39.9434 348.455Z" fill="black"/>
<path d="M130.708 143.652C130.877 142.697 131.707 142 132.678 142H135.322C136.293 142 137.123 142.697 137.292 143.652L139.586 156.652C139.802 157.877 138.86 159 137.616 159H130.384C129.14 159 128.198 157.877 128.414 156.652L130.708 143.652Z" fill="black"/>
<circle cx="134" cy="146" r="2" fill="#C4C4C4"/>
<path d="M180.75 69.2043C180.75 88.2712 175.614 100.138 167.364 107.245C159.106 114.359 147.679 116.75 135 116.75C122.321 116.75 110.894 114.359 102.636 107.245C94.386 100.138 89.25 88.2712 89.25 69.2043C89.25 50.1363 94.3878 32.8849 102.681 20.4078C110.976 7.92894 122.407 0.25 135 0.25C147.593 0.25 159.024 7.92894 167.319 20.4078C175.612 32.8849 180.75 50.1363 180.75 69.2043Z" fill="#F3F3F3" stroke="black" stroke-width="0.5"/>
<path d="M177.75 68.6553C177.75 86.7434 172.949 97.9977 165.241 104.737C157.526 111.482 146.85 113.75 135 113.75C123.15 113.75 112.474 111.482 104.759 104.737C97.0509 97.9977 92.25 86.7434 92.25 68.6553C92.25 50.5667 97.0524 34.202 104.804 22.367C112.556 10.5298 123.238 3.25 135 3.25C146.762 3.25 157.444 10.5298 165.196 22.367C172.948 34.202 177.75 50.5667 177.75 68.6553Z" fill="white" stroke="black" stroke-width="0.5"/>
<path d="M161.75 67.5872C161.75 79.3101 158.849 86.5835 154.214 90.9314C149.576 95.2817 143.152 96.75 136 96.75C128.848 96.75 122.424 95.2817 117.786 90.9314C113.151 86.5835 110.25 79.3101 110.25 67.5872C110.25 55.8654 113.151 45.2653 117.829 37.6038C122.509 29.938 128.94 25.25 136 25.25C143.06 25.25 149.491 29.938 154.171 37.6038C158.849 45.2653 161.75 55.8654 161.75 67.5872Z" fill="#F3F3F3" stroke="black" stroke-width="0.5"/>
<rect x="168.91" y="33.3102" width="5.5" height="11.0446" rx="2.75" transform="rotate(73.6787 168.91 33.3102)" fill="#F3F3F3" stroke="black" stroke-width="0.5"/>
<rect x="0.169669" y="0.310181" width="5.5" height="11.0446" rx="2.75" transform="matrix(-0.281024 0.959701 0.959701 0.281024 100.606 33.0602)" fill="#F3F3F3" stroke="black" stroke-width="0.5"/>
<rect x="-0.169669" y="-0.310181" width="5.5" height="11.0446" rx="2.75" transform="matrix(0.281024 -0.959701 -0.959701 -0.281024 168.66 96.4423)" fill="#F3F3F3" stroke="black" stroke-width="0.5"/>
<rect x="109.91" y="88.3102" width="5.5" height="11.0446" rx="2.75" transform="rotate(73.6787 109.91 88.3102)" fill="#F3F3F3" stroke="black" stroke-width="0.5"/>
<rect x="102.25" y="112.25" width="64.5" height="9.5" rx="3.75" fill="#F3F3F3" stroke="black" stroke-width="0.5"/>
<line x1="80" y1="121" x2="189" y2="121" stroke="black" stroke-width="2"/>
<g filter="url(#filter0_d_55_168)">
<path d="M25.1133 566.672H28.834L34.3125 582.331L39.791 566.672H43.5117L35.8066 588H32.8184L25.1133 566.672ZM23.1064 566.672H26.8125L27.4863 581.936V588H23.1064V566.672ZM41.8125 566.672H45.5332V588H41.1387V581.936L41.8125 566.672ZM58.3213 570.319L52.5205 588H47.8477L55.7725 566.672H58.7461L58.3213 570.319ZM63.1406 588L57.3252 570.319L56.8564 566.672H59.8594L67.8281 588H63.1406ZM62.877 580.061V583.503H51.6123V580.061H62.877ZM55.8457 565.471L58.7168 560.959H63.3018L59.2734 565.471H55.8457ZM70.8018 566.672L75.2549 576.398L79.708 566.672H84.498L77.4814 580.236V588H73.0283V580.236L65.9971 566.672H70.8018ZM102.662 566.672V588H98.2822V566.672H102.662ZM109.225 566.672V570.114H91.8223V566.672H109.225ZM118.819 570.319L113.019 588H108.346L116.271 566.672H119.244L118.819 570.319ZM123.639 588L117.823 570.319L117.354 566.672H120.357L128.326 588H123.639ZM123.375 580.061V583.503H112.11V580.061H123.375ZM116.065 591.354C116.065 590.788 116.28 590.314 116.71 589.934C117.14 589.562 117.716 589.377 118.438 589.377C119.151 589.377 119.723 589.562 120.152 589.934C120.592 590.314 120.812 590.788 120.812 591.354C120.812 591.911 120.592 592.38 120.152 592.761C119.723 593.142 119.151 593.332 118.438 593.332C117.716 593.332 117.14 593.142 116.71 592.761C116.28 592.38 116.065 591.911 116.065 591.354ZM132.311 566.672H136.031L141.51 582.331L146.988 566.672H150.709L143.004 588H140.016L132.311 566.672ZM130.304 566.672H134.01L134.684 581.936V588H130.304V566.672ZM149.01 566.672H152.73V588H148.336V581.936L149.01 566.672ZM181.412 566.672V588H177.018L168.448 573.703V588H164.054V566.672H168.448L177.032 580.983V566.672H181.412ZM202.14 576.853V585.305C201.808 585.705 201.295 586.14 200.602 586.608C199.908 587.067 199.015 587.463 197.921 587.795C196.827 588.127 195.504 588.293 193.951 588.293C192.574 588.293 191.319 588.068 190.187 587.619C189.054 587.16 188.077 586.491 187.257 585.612C186.446 584.733 185.821 583.659 185.382 582.39C184.942 581.11 184.723 579.65 184.723 578.01V576.677C184.723 575.036 184.933 573.576 185.353 572.297C185.782 571.018 186.393 569.938 187.184 569.06C187.975 568.181 188.917 567.512 190.011 567.053C191.104 566.594 192.32 566.364 193.658 566.364C195.514 566.364 197.037 566.667 198.229 567.272C199.42 567.868 200.328 568.698 200.953 569.763C201.588 570.817 201.979 572.028 202.125 573.396H197.862C197.755 572.673 197.55 572.043 197.247 571.506C196.944 570.969 196.51 570.549 195.943 570.246C195.387 569.943 194.664 569.792 193.775 569.792C193.043 569.792 192.389 569.943 191.812 570.246C191.246 570.539 190.768 570.974 190.377 571.55C189.986 572.126 189.688 572.839 189.483 573.688C189.278 574.538 189.176 575.524 189.176 576.647V578.01C189.176 579.123 189.283 580.109 189.498 580.969C189.713 581.818 190.03 582.536 190.45 583.122C190.88 583.698 191.407 584.133 192.032 584.426C192.657 584.719 193.385 584.865 194.215 584.865C194.908 584.865 195.484 584.807 195.943 584.689C196.412 584.572 196.788 584.431 197.071 584.265C197.364 584.089 197.589 583.923 197.745 583.767V579.987H193.731V576.853H202.14ZM224.713 565.485H227.496C227.496 566.921 227.311 568.146 226.939 569.162C226.568 570.168 225.929 570.939 225.021 571.477C224.122 572.004 222.877 572.268 221.285 572.268V569.997C222.32 569.997 223.082 569.821 223.57 569.47C224.059 569.108 224.371 568.591 224.508 567.917C224.645 567.243 224.713 566.433 224.713 565.485ZM217.462 566.672H221.842V580.764C221.842 582.404 221.49 583.786 220.787 584.909C220.094 586.032 219.132 586.877 217.901 587.443C216.681 588.01 215.274 588.293 213.683 588.293C212.091 588.293 210.675 588.01 209.435 587.443C208.204 586.877 207.237 586.032 206.534 584.909C205.841 583.786 205.494 582.404 205.494 580.764V566.672H209.889V580.764C209.889 581.721 210.04 582.502 210.343 583.107C210.646 583.713 211.08 584.157 211.646 584.44C212.223 584.724 212.901 584.865 213.683 584.865C214.483 584.865 215.162 584.724 215.719 584.44C216.285 584.157 216.715 583.713 217.008 583.107C217.311 582.502 217.462 581.721 217.462 580.764V566.672ZM213.463 560.783L216.349 565.295H212.892L208.878 560.783H213.463ZM244.43 566.672V588H240.035L231.466 573.703V588H227.071V566.672H231.466L240.05 580.983V566.672H244.43ZM265.157 576.853V585.305C264.825 585.705 264.312 586.14 263.619 586.608C262.926 587.067 262.032 587.463 260.938 587.795C259.845 588.127 258.521 588.293 256.969 588.293C255.592 588.293 254.337 588.068 253.204 587.619C252.071 587.16 251.095 586.491 250.274 585.612C249.464 584.733 248.839 583.659 248.399 582.39C247.96 581.11 247.74 579.65 247.74 578.01V576.677C247.74 575.036 247.95 573.576 248.37 572.297C248.8 571.018 249.41 569.938 250.201 569.06C250.992 568.181 251.935 567.512 253.028 567.053C254.122 566.594 255.338 566.364 256.676 566.364C258.531 566.364 260.055 566.667 261.246 567.272C262.438 567.868 263.346 568.698 263.971 569.763C264.605 570.817 264.996 572.028 265.143 573.396H260.88C260.772 572.673 260.567 572.043 260.265 571.506C259.962 570.969 259.527 570.549 258.961 570.246C258.404 569.943 257.682 569.792 256.793 569.792C256.061 569.792 255.406 569.943 254.83 570.246C254.264 570.539 253.785 570.974 253.395 571.55C253.004 572.126 252.706 572.839 252.501 573.688C252.296 574.538 252.193 575.524 252.193 576.647V578.01C252.193 579.123 252.301 580.109 252.516 580.969C252.73 581.818 253.048 582.536 253.468 583.122C253.897 583.698 254.425 584.133 255.05 584.426C255.675 584.719 256.402 584.865 257.232 584.865C257.926 584.865 258.502 584.807 258.961 584.689C259.43 584.572 259.806 584.431 260.089 584.265C260.382 584.089 260.606 583.923 260.763 583.767V579.987H256.749V576.853H265.157Z" fill="#FF0000"/>
</g>
</g>
<defs>
<filter id="filter0_d_55_168" x="19.1064" y="560.783" width="250.051" height="40.5488" filterUnits="userSpaceOnUse" color-interpolation-filters="sRGB">
<feFlood flood-opacity="0" result="BackgroundImageFix"/>
<feColorMatrix in="SourceAlpha" type="matrix" values="0 0 0 0 0 0 0 0 0 0 0 0 0 0 0 0 0 0 127 0" result="hardAlpha"/>
<feOffset dy="4"/>
<feGaussianBlur stdDeviation="2"/>
<feComposite in2="hardAlpha" operator="out"/>
<feColorMatrix type="matrix" values="0 0 0 0 0 0 0 0 0 0 0 0 0 0 0 0 0 0 0.25 0"/>
<feBlend mode="normal" in2="BackgroundImageFix" result="effect1_dropShadow_55_168"/>
<feBlend mode="normal" in="SourceGraphic" in2="effect1_dropShadow_55_168" result="shape"/>
</filter>
<clipPath id="clip0_55_168">
<rect width="268" height="615" fill="white"/>
</clipPath>
</defs>
</svg>
