<svg width="271" height="634" viewBox="0 0 271 634" fill="none" xmlns="http://www.w3.org/2000/svg">
<g clip-path="url(#clip0_55_336)">
<rect x="248" y="535" width="16" height="25" rx="8" fill="#DE6B00"/>
<rect x="253" y="538" width="6" height="19" rx="3" fill="black"/>
<rect x="11" y="535" width="16" height="25" rx="8" fill="#DE6B00"/>
<rect x="16" y="538" width="6" height="19" rx="3" fill="black"/>
<rect x="4.5" y="253.5" width="266" height="294" fill="#686868" stroke="black"/>
<rect x="19.5" y="263.5" width="236" height="274" fill="#686868" stroke="black"/>
<rect x="223" y="375" width="13" height="47" rx="6.5" fill="#C4C4C4"/>
<rect x="226" y="393" width="7" height="24" rx="3.5" fill="#888888"/>
<circle cx="229.5" cy="384.5" r="3.5" fill="#888888"/>
<path d="M230.799 354.25L238.16 367C238.738 368 238.016 369.25 236.861 369.25H222.139C220.984 369.25 220.262 368 220.84 367L228.201 354.25C228.778 353.25 230.222 353.25 230.799 354.25Z" fill="#FFF502" stroke="black"/>
<path d="M230.115 358.469L230.039 364.592H229.061L228.979 358.469H230.115ZM228.943 366.455C228.943 366.279 228.996 366.131 229.102 366.01C229.211 365.889 229.371 365.828 229.582 365.828C229.789 365.828 229.947 365.889 230.057 366.01C230.17 366.131 230.227 366.279 230.227 366.455C230.227 366.623 230.17 366.768 230.057 366.889C229.947 367.01 229.789 367.07 229.582 367.07C229.371 367.07 229.211 367.01 229.102 366.889C228.996 366.768 228.943 366.623 228.943 366.455Z" fill="black"/>
<path d="M54.5 122H223L271 253H4L54.5 122Z" fill="#686868"/>
<ellipse cx="89.5" cy="143.5" rx="25.5" ry="7.5" fill="#C4C4C4"/>
<rect x="67" y="93" width="42" height="53" rx="3" fill="#888888"/>
<rect x="136" y="101" width="92" height="101" transform="rotate(-180 136 101)" fill="#C4C4C4"/>
<rect x="52" y="8" width="73" height="41" fill="#5A5A5A"/>
<rect x="57" y="12" width="64" height="34" fill="#F0F0F0"/>
<circle cx="57" cy="79" r="4.75" fill="#31BE00" stroke="black" stroke-width="0.5"/>
<circle cx="85" cy="79" r="4.75" fill="black" stroke="white" stroke-width="0.5"/>
<circle cx="71" cy="79" r="4.75" fill="#C60000" stroke="black" stroke-width="0.5"/>
<rect x="84" y="74" width="2" height="6" rx="1" fill="white"/>
<path d="M142.566 142H167.809L175 222H135L142.566 142Z" fill="#343434"/>
<line x1="138" y1="143" x2="172" y2="143" stroke="black" stroke-width="2"/>
<rect x="149" width="12" height="142" fill="#C4C4C4"/>
<rect x="153" y="3" width="4" height="57" rx="2" fill="white"/>
<path d="M155 21L159.33 23.5V28.5L155 31L150.67 28.5V23.5L155 21Z" fill="black"/>
<path d="M155 22L158.464 24V28L155 30L151.536 28V24L155 22Z" fill="#E5E5E5"/>
<circle cx="155" cy="26" r="2" fill="black"/>
<rect x="129" y="130" width="51" height="12" fill="#A1A1A1"/>
<circle cx="136" cy="136" r="4" fill="black"/>
<circle cx="173" cy="136" r="4" fill="black"/>
<rect x="135.5" y="133.5" width="1" height="5" fill="white"/>
<rect x="172.5" y="133.5" width="1" height="5" fill="white"/>
<rect x="131" y="215" width="49" height="16" rx="2" fill="#C4C4C4"/>
<rect x="131" y="215" width="49" height="6" rx="2" fill="black"/>
<g filter="url(#filter0_d_55_336)">
<path d="M19.1133 585.672H22.834L28.3125 601.331L33.791 585.672H37.5117L29.8066 607H26.8184L19.1133 585.672ZM17.1064 585.672H20.8125L21.4863 600.936V607H17.1064V585.672ZM35.8125 585.672H39.5332V607H35.1387V600.936L35.8125 585.672ZM52.3213 589.319L46.5205 607H41.8477L49.7725 585.672H52.7461L52.3213 589.319ZM57.1406 607L51.3252 589.319L50.8564 585.672H53.8594L61.8281 607H57.1406ZM56.877 599.061V602.503H45.6123V599.061H56.877ZM49.8457 584.471L52.7168 579.959H57.3018L53.2734 584.471H49.8457ZM64.8018 585.672L69.2549 595.398L73.708 585.672H78.498L71.4814 599.236V607H67.0283V599.236L59.9971 585.672H64.8018ZM96.6621 585.672V607H92.2822V585.672H96.6621ZM103.225 585.672V589.114H85.8223V585.672H103.225ZM112.819 589.319L107.019 607H102.346L110.271 585.672H113.244L112.819 589.319ZM117.639 607L111.823 589.319L111.354 585.672H114.357L122.326 607H117.639ZM117.375 599.061V602.503H106.11V599.061H117.375ZM110.065 610.354C110.065 609.788 110.28 609.314 110.71 608.934C111.14 608.562 111.716 608.377 112.438 608.377C113.151 608.377 113.723 608.562 114.152 608.934C114.592 609.314 114.812 609.788 114.812 610.354C114.812 610.911 114.592 611.38 114.152 611.761C113.723 612.142 113.151 612.332 112.438 612.332C111.716 612.332 111.14 612.142 110.71 611.761C110.28 611.38 110.065 610.911 110.065 610.354ZM126.311 585.672H130.031L135.51 601.331L140.988 585.672H144.709L137.004 607H134.016L126.311 585.672ZM124.304 585.672H128.01L128.684 600.936V607H124.304V585.672ZM143.01 585.672H146.73V607H142.336V600.936L143.01 585.672ZM175.412 585.672V607H171.018L162.448 592.703V607H158.054V585.672H162.448L171.032 599.983V585.672H175.412ZM196.14 595.853V604.305C195.808 604.705 195.295 605.14 194.602 605.608C193.908 606.067 193.015 606.463 191.921 606.795C190.827 607.127 189.504 607.293 187.951 607.293C186.574 607.293 185.319 607.068 184.187 606.619C183.054 606.16 182.077 605.491 181.257 604.612C180.446 603.733 179.821 602.659 179.382 601.39C178.942 600.11 178.723 598.65 178.723 597.01V595.677C178.723 594.036 178.933 592.576 179.353 591.297C179.782 590.018 180.393 588.938 181.184 588.06C181.975 587.181 182.917 586.512 184.011 586.053C185.104 585.594 186.32 585.364 187.658 585.364C189.514 585.364 191.037 585.667 192.229 586.272C193.42 586.868 194.328 587.698 194.953 588.763C195.588 589.817 195.979 591.028 196.125 592.396H191.862C191.755 591.673 191.55 591.043 191.247 590.506C190.944 589.969 190.51 589.549 189.943 589.246C189.387 588.943 188.664 588.792 187.775 588.792C187.043 588.792 186.389 588.943 185.812 589.246C185.246 589.539 184.768 589.974 184.377 590.55C183.986 591.126 183.688 591.839 183.483 592.688C183.278 593.538 183.176 594.524 183.176 595.647V597.01C183.176 598.123 183.283 599.109 183.498 599.969C183.713 600.818 184.03 601.536 184.45 602.122C184.88 602.698 185.407 603.133 186.032 603.426C186.657 603.719 187.385 603.865 188.215 603.865C188.908 603.865 189.484 603.807 189.943 603.689C190.412 603.572 190.788 603.431 191.071 603.265C191.364 603.089 191.589 602.923 191.745 602.767V598.987H187.731V595.853H196.14ZM218.713 584.485H221.496C221.496 585.921 221.311 587.146 220.939 588.162C220.568 589.168 219.929 589.939 219.021 590.477C218.122 591.004 216.877 591.268 215.285 591.268V588.997C216.32 588.997 217.082 588.821 217.57 588.47C218.059 588.108 218.371 587.591 218.508 586.917C218.645 586.243 218.713 585.433 218.713 584.485ZM211.462 585.672H215.842V599.764C215.842 601.404 215.49 602.786 214.787 603.909C214.094 605.032 213.132 605.877 211.901 606.443C210.681 607.01 209.274 607.293 207.683 607.293C206.091 607.293 204.675 607.01 203.435 606.443C202.204 605.877 201.237 605.032 200.534 603.909C199.841 602.786 199.494 601.404 199.494 599.764V585.672H203.889V599.764C203.889 600.721 204.04 601.502 204.343 602.107C204.646 602.713 205.08 603.157 205.646 603.44C206.223 603.724 206.901 603.865 207.683 603.865C208.483 603.865 209.162 603.724 209.719 603.44C210.285 603.157 210.715 602.713 211.008 602.107C211.311 601.502 211.462 600.721 211.462 599.764V585.672ZM207.463 579.783L210.349 584.295H206.892L202.878 579.783H207.463ZM238.43 585.672V607H234.035L225.466 592.703V607H221.071V585.672H225.466L234.05 599.983V585.672H238.43ZM259.157 595.853V604.305C258.825 604.705 258.312 605.14 257.619 605.608C256.926 606.067 256.032 606.463 254.938 606.795C253.845 607.127 252.521 607.293 250.969 607.293C249.592 607.293 248.337 607.068 247.204 606.619C246.071 606.16 245.095 605.491 244.274 604.612C243.464 603.733 242.839 602.659 242.399 601.39C241.96 600.11 241.74 598.65 241.74 597.01V595.677C241.74 594.036 241.95 592.576 242.37 591.297C242.8 590.018 243.41 588.938 244.201 588.06C244.992 587.181 245.935 586.512 247.028 586.053C248.122 585.594 249.338 585.364 250.676 585.364C252.531 585.364 254.055 585.667 255.246 586.272C256.438 586.868 257.346 587.698 257.971 588.763C258.605 589.817 258.996 591.028 259.143 592.396H254.88C254.772 591.673 254.567 591.043 254.265 590.506C253.962 589.969 253.527 589.549 252.961 589.246C252.404 588.943 251.682 588.792 250.793 588.792C250.061 588.792 249.406 588.943 248.83 589.246C248.264 589.539 247.785 589.974 247.395 590.55C247.004 591.126 246.706 591.839 246.501 592.688C246.296 593.538 246.193 594.524 246.193 595.647V597.01C246.193 598.123 246.301 599.109 246.516 599.969C246.73 600.818 247.048 601.536 247.468 602.122C247.897 602.698 248.425 603.133 249.05 603.426C249.675 603.719 250.402 603.865 251.232 603.865C251.926 603.865 252.502 603.807 252.961 603.689C253.43 603.572 253.806 603.431 254.089 603.265C254.382 603.089 254.606 602.923 254.763 602.767V598.987H250.749V595.853H259.157Z" fill="#FF0000"/>
</g>
</g>
<defs>
<filter id="filter0_d_55_336" x="13.1064" y="579.783" width="250.051" height="40.5488" filterUnits="userSpaceOnUse" color-interpolation-filters="sRGB">
<feFlood flood-opacity="0" result="BackgroundImageFix"/>
<feColorMatrix in="SourceAlpha" type="matrix" values="0 0 0 0 0 0 0 0 0 0 0 0 0 0 0 0 0 0 127 0" result="hardAlpha"/>
<feOffset dy="4"/>
<feGaussianBlur stdDeviation="2"/>
<feComposite in2="hardAlpha" operator="out"/>
<feColorMatrix type="matrix" values="0 0 0 0 0 0 0 0 0 0 0 0 0 0 0 0 0 0 0.25 0"/>
<feBlend mode="normal" in2="BackgroundImageFix" result="effect1_dropShadow_55_336"/>
<feBlend mode="normal" in="SourceGraphic" in2="effect1_dropShadow_55_336" result="shape"/>
</filter>
<clipPath id="clip0_55_336">
<rect width="271" height="634" fill="white"/>
</clipPath>
</defs>
</svg>
