<svg width="195" height="195" viewBox="0 0 195 195" fill="none" xmlns="http://www.w3.org/2000/svg">
<circle cx="97.5" cy="97.5" r="97.5" fill="#0EB300"/>
<circle cx="97.5" cy="97.5" r="79.5" stroke="white" stroke-width="10"/>
<path d="M98.0417 152C83.2358 152 69.9288 142.962 64.4333 129.201L50.6721 94.6387C49.2642 91.0508 52.625 87.4629 56.3038 88.6437L59.8917 89.8246C62.435 90.6421 64.5242 92.595 65.5233 95.0929L71.9271 111.125H75.3333V57.7604C75.3333 54.6267 77.8767 52.0833 81.0104 52.0833C84.1442 52.0833 86.6875 54.6267 86.6875 57.7604V97.5H91.2292V48.6771C91.2292 45.5433 93.7725 43 96.9063 43C100.04 43 102.583 45.5433 102.583 48.6771V97.5H107.125V55.4896C107.125 52.3558 109.668 49.8125 112.802 49.8125C115.936 49.8125 118.479 52.3558 118.479 55.4896V97.5H123.021V69.1146C123.021 65.9808 125.564 63.4375 128.698 63.4375C131.832 63.4375 134.375 65.9808 134.375 69.1146V115.667C134.375 135.741 118.116 152 98.0417 152Z" fill="white"/>
</svg>
