<svg width="195" height="195" viewBox="0 0 195 195" fill="none" xmlns="http://www.w3.org/2000/svg">
<circle cx="97.5" cy="97.5" r="97.5" fill="#ED3900"/>
<circle cx="97.5" cy="97.5" r="79.5" stroke="white" stroke-width="10"/>
<path d="M59.6016 102.651C59.6016 102.163 59.4469 101.732 59.1377 101.357C58.8447 100.983 58.3076 100.641 57.5264 100.332C56.7614 100.023 55.679 99.7135 54.2793 99.4043C52.9609 99.1276 51.7321 98.7695 50.5928 98.3301C49.4535 97.8743 48.4606 97.3291 47.6143 96.6943C46.7679 96.0433 46.1087 95.2783 45.6367 94.3994C45.1647 93.5042 44.9287 92.487 44.9287 91.3477C44.9287 90.2409 45.1647 89.1911 45.6367 88.1982C46.125 87.2054 46.8249 86.3265 47.7363 85.5615C48.6641 84.7965 49.7871 84.1943 51.1055 83.7549C52.4401 83.3154 53.9538 83.0957 55.6465 83.0957C57.974 83.0957 59.984 83.4619 61.6768 84.1943C63.3695 84.9105 64.6715 85.9196 65.583 87.2217C66.4945 88.5075 66.9502 89.9805 66.9502 91.6406H59.333C59.333 90.957 59.2028 90.363 58.9424 89.8584C58.682 89.3538 58.2832 88.9632 57.7461 88.6865C57.209 88.3936 56.501 88.2471 55.6221 88.2471C54.9385 88.2471 54.3363 88.3691 53.8154 88.6133C53.3109 88.8411 52.9121 89.1585 52.6191 89.5654C52.3424 89.9723 52.2041 90.4443 52.2041 90.9814C52.2041 91.3558 52.2855 91.6976 52.4482 92.0068C52.6273 92.2998 52.8958 92.5765 53.2539 92.8369C53.6283 93.0811 54.1084 93.3008 54.6943 93.4961C55.2965 93.6914 56.029 93.8786 56.8916 94.0576C58.7308 94.3994 60.4072 94.8796 61.9209 95.498C63.4508 96.1165 64.6715 96.971 65.583 98.0615C66.5107 99.152 66.9746 100.592 66.9746 102.383C66.9746 103.555 66.7061 104.629 66.1689 105.605C65.6481 106.582 64.8913 107.437 63.8984 108.169C62.9056 108.901 61.7174 109.471 60.334 109.878C58.9505 110.285 57.388 110.488 55.6465 110.488C53.1562 110.488 51.0485 110.041 49.3232 109.146C47.598 108.25 46.2959 107.127 45.417 105.776C44.5544 104.409 44.123 103.009 44.123 101.577H51.2764C51.3089 102.456 51.5286 103.172 51.9355 103.726C52.3587 104.279 52.904 104.686 53.5713 104.946C54.2386 105.19 54.9873 105.312 55.8174 105.312C56.6475 105.312 57.3392 105.199 57.8926 104.971C58.446 104.743 58.8691 104.434 59.1621 104.043C59.4551 103.636 59.6016 103.172 59.6016 102.651ZM87.9004 83.584V88.9307H72.2266V83.584H87.9004ZM75.8154 77.041H83.457V101.724C83.457 102.456 83.5465 103.018 83.7256 103.408C83.9046 103.799 84.1976 104.076 84.6045 104.238C85.0114 104.385 85.5322 104.458 86.167 104.458C86.6227 104.458 87.0133 104.442 87.3389 104.409C87.6644 104.377 87.9655 104.336 88.2422 104.287V109.805C87.5911 110.016 86.8994 110.179 86.167 110.293C85.4346 110.423 84.637 110.488 83.7744 110.488C82.1305 110.488 80.7064 110.22 79.502 109.683C78.3138 109.146 77.4023 108.299 76.7676 107.144C76.1328 105.972 75.8154 104.45 75.8154 102.578V77.041ZM93.0303 97.0605V96.5479C93.0303 94.611 93.307 92.8288 93.8604 91.2012C94.4137 89.5573 95.2275 88.1331 96.3018 86.9287C97.376 85.7243 98.6943 84.7884 100.257 84.1211C101.819 83.4375 103.61 83.0957 105.628 83.0957C107.679 83.0957 109.485 83.4375 111.048 84.1211C112.627 84.7884 113.953 85.7243 115.027 86.9287C116.102 88.1331 116.915 89.5573 117.469 91.2012C118.022 92.8288 118.299 94.611 118.299 96.5479V97.0605C118.299 98.9811 118.022 100.763 117.469 102.407C116.915 104.035 116.102 105.459 115.027 106.68C113.953 107.884 112.635 108.82 111.072 109.487C109.51 110.155 107.711 110.488 105.677 110.488C103.659 110.488 101.86 110.155 100.281 109.487C98.7025 108.82 97.376 107.884 96.3018 106.68C95.2275 105.459 94.4137 104.035 93.8604 102.407C93.307 100.763 93.0303 98.9811 93.0303 97.0605ZM100.672 96.5479V97.0605C100.672 98.1022 100.753 99.0788 100.916 99.9902C101.095 100.902 101.38 101.699 101.771 102.383C102.161 103.066 102.674 103.604 103.309 103.994C103.96 104.368 104.749 104.556 105.677 104.556C106.604 104.556 107.386 104.368 108.021 103.994C108.655 103.604 109.168 103.066 109.559 102.383C109.949 101.699 110.226 100.902 110.389 99.9902C110.568 99.0788 110.657 98.1022 110.657 97.0605V96.5479C110.657 95.5225 110.568 94.5622 110.389 93.667C110.226 92.7555 109.949 91.9499 109.559 91.25C109.168 90.5501 108.647 90.0049 107.996 89.6143C107.361 89.2236 106.572 89.0283 105.628 89.0283C104.716 89.0283 103.943 89.2236 103.309 89.6143C102.674 90.0049 102.161 90.5501 101.771 91.25C101.38 91.9499 101.095 92.7555 100.916 93.667C100.753 94.5622 100.672 95.5225 100.672 96.5479ZM133.194 88.6621V120.156H125.577V83.584H132.682L133.194 88.6621ZM149.674 96.499V97.0117C149.674 98.9323 149.454 100.715 149.015 102.358C148.575 103.986 147.916 105.41 147.037 106.631C146.174 107.852 145.108 108.804 143.839 109.487C142.569 110.155 141.096 110.488 139.42 110.488C137.825 110.488 136.441 110.155 135.27 109.487C134.114 108.804 133.137 107.86 132.34 106.655C131.559 105.435 130.924 104.043 130.436 102.48C129.964 100.902 129.597 99.2171 129.337 97.4268V96.4258C129.597 94.5215 129.972 92.7555 130.46 91.1279C130.948 89.5003 131.583 88.0924 132.364 86.9043C133.146 85.6999 134.114 84.764 135.27 84.0967C136.425 83.4294 137.8 83.0957 139.396 83.0957C141.056 83.0957 142.529 83.4131 143.814 84.0479C145.1 84.6826 146.174 85.5941 147.037 86.7822C147.916 87.9541 148.575 89.362 149.015 91.0059C149.454 92.6497 149.674 94.4808 149.674 96.499ZM142.032 97.0117V96.499C142.032 95.4248 141.951 94.4401 141.788 93.5449C141.625 92.6335 141.365 91.8441 141.007 91.1768C140.649 90.4932 140.177 89.9642 139.591 89.5898C139.005 89.2155 138.289 89.0283 137.442 89.0283C136.531 89.0283 135.758 89.1748 135.123 89.4678C134.488 89.7607 133.976 90.1921 133.585 90.7617C133.194 91.3151 132.91 91.9987 132.73 92.8125C132.568 93.6263 132.478 94.554 132.462 95.5957V98.2812C132.478 99.502 132.649 100.592 132.975 101.553C133.316 102.497 133.845 103.237 134.562 103.774C135.294 104.295 136.271 104.556 137.491 104.556C138.354 104.556 139.07 104.368 139.64 103.994C140.226 103.604 140.689 103.058 141.031 102.358C141.389 101.659 141.642 100.853 141.788 99.9414C141.951 99.0299 142.032 98.0534 142.032 97.0117Z" fill="white"/>
</svg>
