<svg width="336" height="540" viewBox="0 0 336 540" fill="none" xmlns="http://www.w3.org/2000/svg">
<g clip-path="url(#clip0_55_338)">
<rect x="14" y="460.5" width="16" height="25" rx="8" fill="#DE6B00"/>
<rect x="19" y="463.5" width="6" height="19" rx="3" fill="black"/>
<rect x="248" y="460.5" width="16" height="25" rx="8" fill="#DE6B00"/>
<rect x="253" y="463.5" width="6" height="19" rx="3" fill="black"/>
<path d="M297.497 114.552C323 346 352.5 386.5 270.497 372.552" stroke="#686868" stroke-width="11"/>
<rect x="6.5" y="179" width="266" height="294" fill="#686868" stroke="black"/>
<rect x="6.5" y="179" width="266" height="13" fill="#C9C9C9" stroke="black"/>
<path d="M6.80201 178L56.8117 76H224.681L272.215 178H6.80201Z" fill="#C9C9C9" stroke="black"/>
<path d="M67.8801 81.5H214.292L256 172.5H24L67.8801 81.5Z" fill="#ECECEC"/>
<path d="M58.6586 180.624C58.8791 180.544 59.1209 180.544 59.3414 180.624L68.2789 183.871C68.8837 184.09 69.1266 184.816 68.7759 185.356L65.7614 189.994C65.5769 190.278 65.2614 190.45 64.9229 190.45H53.0771C52.7386 190.45 52.4231 190.278 52.2386 189.994L49.2241 185.356C48.8734 184.816 49.1163 184.09 49.7211 183.871L58.6586 180.624Z" fill="#494949"/>
<path d="M215.659 180.624C215.879 180.544 216.121 180.544 216.341 180.624L225.279 183.871C225.884 184.09 226.127 184.816 225.776 185.356L222.761 189.994C222.577 190.278 222.261 190.45 221.923 190.45H210.077C209.739 190.45 209.423 190.278 209.239 189.994L206.224 185.356C205.873 184.816 206.116 184.09 206.721 183.871L215.659 180.624Z" fill="#494949"/>
<rect x="53" y="185.5" width="12" height="3" rx="1.5" fill="#C4C4C4"/>
<rect x="210" y="185.5" width="12" height="3" rx="1.5" fill="#C4C4C4"/>
<rect x="53" y="196.5" width="12" height="33" rx="3" fill="#C4C4C4"/>
<path d="M47 203.5H53V205.5H49L48 217.5H70L69 205.5H65V203.5H71L72 219.5H46L47 203.5Z" fill="#484848"/>
<rect x="57" y="203.5" width="4" height="12" fill="#484848"/>
<rect x="210" y="196.5" width="12" height="33" rx="3" fill="#C4C4C4"/>
<path d="M302 253H308V255H304L303 267H325L324 255H320V253H326L327 269H301L302 253Z" fill="#484848"/>
<rect x="214" y="203.5" width="4" height="12" fill="#484848"/>
<path d="M121 163.5C121 161.291 122.791 159.5 125 159.5H172C174.209 159.5 176 161.291 176 163.5V175.5H121V163.5Z" fill="#484848"/>
<path d="M126 175.5H171V172.5H126V175.5Z" fill="#C9C9C9"/>
<path d="M126 167.5C126 165.291 127.791 163.5 130 163.5H167C169.209 163.5 171 165.291 171 167.5V172.5H126V167.5Z" fill="#ECECEC"/>
<rect x="335" y="115.5" width="92" height="101" transform="rotate(-180 335 115.5)" fill="#C4C4C4"/>
<rect x="251" y="22.5" width="73" height="41" fill="#5A5A5A"/>
<rect x="256" y="26.5" width="64" height="34" fill="#F0F0F0"/>
<circle cx="256" cy="93.5" r="4.75" fill="#31BE00" stroke="black" stroke-width="0.5"/>
<circle cx="284" cy="93.5" r="4.75" fill="black" stroke="white" stroke-width="0.5"/>
<circle cx="270" cy="93.5" r="4.75" fill="#C60000" stroke="black" stroke-width="0.5"/>
<rect x="283" y="88.5" width="2" height="6" rx="1" fill="white"/>
<path d="M234 0L243 14.5V115.5L234 95V0Z" fill="#A7A7A7"/>
<path d="M234 0.5H327.5L335 14.5H243L234 0.5Z" fill="#5C5C5C"/>
<rect x="231.77" y="94.1467" width="2" height="26.3903" rx="1" transform="rotate(-25.4156 231.77 94.1467)" fill="#393939"/>
<g filter="url(#filter0_d_55_338)">
<path d="M29.1133 506.672H32.834L38.3125 522.331L43.791 506.672H47.5117L39.8066 528H36.8184L29.1133 506.672ZM27.1064 506.672H30.8125L31.4863 521.936V528H27.1064V506.672ZM45.8125 506.672H49.5332V528H45.1387V521.936L45.8125 506.672ZM62.3213 510.319L56.5205 528H51.8477L59.7725 506.672H62.7461L62.3213 510.319ZM67.1406 528L61.3252 510.319L60.8564 506.672H63.8594L71.8281 528H67.1406ZM66.877 520.061V523.503H55.6123V520.061H66.877ZM59.8457 505.471L62.7168 500.959H67.3018L63.2734 505.471H59.8457ZM74.8018 506.672L79.2549 516.398L83.708 506.672H88.498L81.4814 520.236V528H77.0283V520.236L69.9971 506.672H74.8018ZM106.662 506.672V528H102.282V506.672H106.662ZM113.225 506.672V510.114H95.8223V506.672H113.225ZM122.819 510.319L117.019 528H112.346L120.271 506.672H123.244L122.819 510.319ZM127.639 528L121.823 510.319L121.354 506.672H124.357L132.326 528H127.639ZM127.375 520.061V523.503H116.11V520.061H127.375ZM120.065 531.354C120.065 530.788 120.28 530.314 120.71 529.934C121.14 529.562 121.716 529.377 122.438 529.377C123.151 529.377 123.723 529.562 124.152 529.934C124.592 530.314 124.812 530.788 124.812 531.354C124.812 531.911 124.592 532.38 124.152 532.761C123.723 533.142 123.151 533.332 122.438 533.332C121.716 533.332 121.14 533.142 120.71 532.761C120.28 532.38 120.065 531.911 120.065 531.354ZM136.311 506.672H140.031L145.51 522.331L150.988 506.672H154.709L147.004 528H144.016L136.311 506.672ZM134.304 506.672H138.01L138.684 521.936V528H134.304V506.672ZM153.01 506.672H156.73V528H152.336V521.936L153.01 506.672ZM185.412 506.672V528H181.018L172.448 513.703V528H168.054V506.672H172.448L181.032 520.983V506.672H185.412ZM206.14 516.853V525.305C205.808 525.705 205.295 526.14 204.602 526.608C203.908 527.067 203.015 527.463 201.921 527.795C200.827 528.127 199.504 528.293 197.951 528.293C196.574 528.293 195.319 528.068 194.187 527.619C193.054 527.16 192.077 526.491 191.257 525.612C190.446 524.733 189.821 523.659 189.382 522.39C188.942 521.11 188.723 519.65 188.723 518.01V516.677C188.723 515.036 188.933 513.576 189.353 512.297C189.782 511.018 190.393 509.938 191.184 509.06C191.975 508.181 192.917 507.512 194.011 507.053C195.104 506.594 196.32 506.364 197.658 506.364C199.514 506.364 201.037 506.667 202.229 507.272C203.42 507.868 204.328 508.698 204.953 509.763C205.588 510.817 205.979 512.028 206.125 513.396H201.862C201.755 512.673 201.55 512.043 201.247 511.506C200.944 510.969 200.51 510.549 199.943 510.246C199.387 509.943 198.664 509.792 197.775 509.792C197.043 509.792 196.389 509.943 195.812 510.246C195.246 510.539 194.768 510.974 194.377 511.55C193.986 512.126 193.688 512.839 193.483 513.688C193.278 514.538 193.176 515.524 193.176 516.647V518.01C193.176 519.123 193.283 520.109 193.498 520.969C193.713 521.818 194.03 522.536 194.45 523.122C194.88 523.698 195.407 524.133 196.032 524.426C196.657 524.719 197.385 524.865 198.215 524.865C198.908 524.865 199.484 524.807 199.943 524.689C200.412 524.572 200.788 524.431 201.071 524.265C201.364 524.089 201.589 523.923 201.745 523.767V519.987H197.731V516.853H206.14ZM228.713 505.485H231.496C231.496 506.921 231.311 508.146 230.939 509.162C230.568 510.168 229.929 510.939 229.021 511.477C228.122 512.004 226.877 512.268 225.285 512.268V509.997C226.32 509.997 227.082 509.821 227.57 509.47C228.059 509.108 228.371 508.591 228.508 507.917C228.645 507.243 228.713 506.433 228.713 505.485ZM221.462 506.672H225.842V520.764C225.842 522.404 225.49 523.786 224.787 524.909C224.094 526.032 223.132 526.877 221.901 527.443C220.681 528.01 219.274 528.293 217.683 528.293C216.091 528.293 214.675 528.01 213.435 527.443C212.204 526.877 211.237 526.032 210.534 524.909C209.841 523.786 209.494 522.404 209.494 520.764V506.672H213.889V520.764C213.889 521.721 214.04 522.502 214.343 523.107C214.646 523.713 215.08 524.157 215.646 524.44C216.223 524.724 216.901 524.865 217.683 524.865C218.483 524.865 219.162 524.724 219.719 524.44C220.285 524.157 220.715 523.713 221.008 523.107C221.311 522.502 221.462 521.721 221.462 520.764V506.672ZM217.463 500.783L220.349 505.295H216.892L212.878 500.783H217.463ZM248.43 506.672V528H244.035L235.466 513.703V528H231.071V506.672H235.466L244.05 520.983V506.672H248.43ZM269.157 516.853V525.305C268.825 525.705 268.312 526.14 267.619 526.608C266.926 527.067 266.032 527.463 264.938 527.795C263.845 528.127 262.521 528.293 260.969 528.293C259.592 528.293 258.337 528.068 257.204 527.619C256.071 527.16 255.095 526.491 254.274 525.612C253.464 524.733 252.839 523.659 252.399 522.39C251.96 521.11 251.74 519.65 251.74 518.01V516.677C251.74 515.036 251.95 513.576 252.37 512.297C252.8 511.018 253.41 509.938 254.201 509.06C254.992 508.181 255.935 507.512 257.028 507.053C258.122 506.594 259.338 506.364 260.676 506.364C262.531 506.364 264.055 506.667 265.246 507.272C266.438 507.868 267.346 508.698 267.971 509.763C268.605 510.817 268.996 512.028 269.143 513.396H264.88C264.772 512.673 264.567 512.043 264.265 511.506C263.962 510.969 263.527 510.549 262.961 510.246C262.404 509.943 261.682 509.792 260.793 509.792C260.061 509.792 259.406 509.943 258.83 510.246C258.264 510.539 257.785 510.974 257.395 511.55C257.004 512.126 256.706 512.839 256.501 513.688C256.296 514.538 256.193 515.524 256.193 516.647V518.01C256.193 519.123 256.301 520.109 256.516 520.969C256.73 521.818 257.048 522.536 257.468 523.122C257.897 523.698 258.425 524.133 259.05 524.426C259.675 524.719 260.402 524.865 261.232 524.865C261.926 524.865 262.502 524.807 262.961 524.689C263.43 524.572 263.806 524.431 264.089 524.265C264.382 524.089 264.606 523.923 264.763 523.767V519.987H260.749V516.853H269.157Z" fill="#FF0000"/>
</g>
</g>
<defs>
<filter id="filter0_d_55_338" x="23.1064" y="500.783" width="250.051" height="40.5488" filterUnits="userSpaceOnUse" color-interpolation-filters="sRGB">
<feFlood flood-opacity="0" result="BackgroundImageFix"/>
<feColorMatrix in="SourceAlpha" type="matrix" values="0 0 0 0 0 0 0 0 0 0 0 0 0 0 0 0 0 0 127 0" result="hardAlpha"/>
<feOffset dy="4"/>
<feGaussianBlur stdDeviation="2"/>
<feComposite in2="hardAlpha" operator="out"/>
<feColorMatrix type="matrix" values="0 0 0 0 0 0 0 0 0 0 0 0 0 0 0 0 0 0 0.25 0"/>
<feBlend mode="normal" in2="BackgroundImageFix" result="effect1_dropShadow_55_338"/>
<feBlend mode="normal" in="SourceGraphic" in2="effect1_dropShadow_55_338" result="shape"/>
</filter>
<clipPath id="clip0_55_338">
<rect width="336" height="540" fill="white"/>
</clipPath>
</defs>
</svg>
