<svg width="462" height="524" viewBox="0 0 462 524" fill="none" xmlns="http://www.w3.org/2000/svg">
<g clip-path="url(#clip0_55_340)">
<rect x="200" y="433.438" width="16" height="25" rx="8" fill="#DE6B00"/>
<rect x="205" y="436.438" width="6" height="19" rx="3" fill="black"/>
<rect x="434" y="433.438" width="16" height="25" rx="8" fill="#DE6B00"/>
<rect x="439" y="436.438" width="6" height="19" rx="3" fill="black"/>
<path d="M29.6685 172.61H118.652L144 200.61H3L29.6685 172.61Z" fill="#C9C9C9"/>
<path d="M61.8895 174.61H91.5506L100 188.61H53L61.8895 174.61Z" fill="#EFEFEF"/>
<path d="M76.9999 182.61C75.6589 67.6423 118.063 49.5214 252 61.1101" stroke="#727272" stroke-width="20"/>
<rect x="192" y="151.438" width="267" height="295" fill="#9A9A9A"/>
<rect x="192" y="233.438" width="267" height="21" fill="#E2E2E2"/>
<rect x="192" y="233.438" width="267" height="21" fill="#E2E2E2"/>
<rect x="192" y="233.438" width="267" height="21" fill="#E2E2E2"/>
<rect x="192" y="151.438" width="267" height="21" fill="#E2E2E2"/>
<rect x="192" y="151.438" width="267" height="21" fill="#E2E2E2"/>
<rect x="192" y="151.438" width="267" height="21" fill="#E2E2E2"/>
<rect x="192" y="254.438" width="267" height="192" fill="#686868"/>
<path d="M242.5 48.4381H411L459 151.438H192L242.5 48.4381Z" fill="#C9C9C9"/>
<path d="M288 269.438H364V433.438H288V269.438Z" fill="#ECECEC"/>
<path d="M288 371.438H364V433.438H288V371.438Z" fill="#D7D7D7"/>
<rect x="355" y="180.438" width="73" height="41" fill="#5A5A5A"/>
<rect x="360" y="184.438" width="64" height="34" fill="#F0F0F0"/>
<rect x="210" y="203.438" width="56" height="22" fill="#F0F0F0"/>
<rect x="288" y="181.438" width="34" height="14" fill="#272727"/>
<path d="M292.55 194.558C291.89 194.558 291.365 194.336 290.975 193.891C290.585 193.441 290.39 192.838 290.39 192.083V190.793C290.39 190.363 290.463 189.958 290.608 189.578C290.758 189.193 290.965 188.873 291.23 188.618C290.995 188.383 290.81 188.088 290.675 187.733C290.545 187.373 290.48 186.993 290.48 186.593V185.663C290.48 184.938 290.665 184.363 291.035 183.938C291.41 183.508 291.915 183.293 292.55 183.293C293.185 183.293 293.688 183.506 294.058 183.931C294.433 184.356 294.62 184.933 294.62 185.663V186.593C294.62 186.993 294.553 187.373 294.418 187.733C294.288 188.088 294.105 188.383 293.87 188.618C294.135 188.873 294.34 189.193 294.485 189.578C294.635 189.958 294.71 190.363 294.71 190.793V192.083C294.71 192.838 294.515 193.441 294.125 193.891C293.735 194.336 293.21 194.558 292.55 194.558ZM292.55 193.073C292.745 193.073 292.878 192.991 292.948 192.826C293.023 192.656 293.06 192.343 293.06 191.888V190.771C293.06 190.281 293.023 189.946 292.948 189.766C292.878 189.581 292.745 189.488 292.55 189.488C292.355 189.488 292.223 189.578 292.153 189.758C292.083 189.933 292.048 190.271 292.048 190.771V191.888C292.048 192.338 292.083 192.648 292.153 192.818C292.228 192.988 292.36 193.073 292.55 193.073ZM292.55 187.898C292.67 187.898 292.765 187.853 292.835 187.763C292.905 187.673 292.955 187.526 292.985 187.321C293.015 187.111 293.03 186.831 293.03 186.481V185.753C293.03 185.358 292.995 185.088 292.925 184.943C292.86 184.793 292.735 184.718 292.55 184.718C292.37 184.718 292.245 184.791 292.175 184.936C292.11 185.081 292.078 185.353 292.078 185.753V186.481C292.078 186.836 292.093 187.118 292.123 187.328C292.153 187.533 292.2 187.681 292.265 187.771C292.335 187.856 292.43 187.898 292.55 187.898ZM300.712 194.558C300.052 194.558 299.527 194.336 299.137 193.891C298.747 193.441 298.552 192.838 298.552 192.083V190.793C298.552 190.363 298.625 189.958 298.77 189.578C298.92 189.193 299.127 188.873 299.392 188.618C299.157 188.383 298.972 188.088 298.837 187.733C298.707 187.373 298.642 186.993 298.642 186.593V185.663C298.642 184.938 298.827 184.363 299.197 183.938C299.572 183.508 300.077 183.293 300.712 183.293C301.347 183.293 301.85 183.506 302.22 183.931C302.595 184.356 302.782 184.933 302.782 185.663V186.593C302.782 186.993 302.715 187.373 302.58 187.733C302.45 188.088 302.267 188.383 302.032 188.618C302.297 188.873 302.502 189.193 302.647 189.578C302.797 189.958 302.872 190.363 302.872 190.793V192.083C302.872 192.838 302.677 193.441 302.287 193.891C301.897 194.336 301.372 194.558 300.712 194.558ZM300.712 193.073C300.907 193.073 301.04 192.991 301.11 192.826C301.185 192.656 301.222 192.343 301.222 191.888V190.771C301.222 190.281 301.185 189.946 301.11 189.766C301.04 189.581 300.907 189.488 300.712 189.488C300.517 189.488 300.385 189.578 300.315 189.758C300.245 189.933 300.21 190.271 300.21 190.771V191.888C300.21 192.338 300.245 192.648 300.315 192.818C300.39 192.988 300.522 193.073 300.712 193.073ZM300.712 187.898C300.832 187.898 300.927 187.853 300.997 187.763C301.067 187.673 301.117 187.526 301.147 187.321C301.177 187.111 301.192 186.831 301.192 186.481V185.753C301.192 185.358 301.157 185.088 301.087 184.943C301.022 184.793 300.897 184.718 300.712 184.718C300.532 184.718 300.407 184.791 300.337 184.936C300.272 185.081 300.24 185.353 300.24 185.753V186.481C300.24 186.836 300.255 187.118 300.285 187.328C300.315 187.533 300.362 187.681 300.427 187.771C300.497 187.856 300.592 187.898 300.712 187.898ZM308.874 194.558C308.214 194.558 307.689 194.336 307.299 193.891C306.909 193.441 306.714 192.838 306.714 192.083V190.793C306.714 190.363 306.787 189.958 306.932 189.578C307.082 189.193 307.289 188.873 307.554 188.618C307.319 188.383 307.134 188.088 306.999 187.733C306.869 187.373 306.804 186.993 306.804 186.593V185.663C306.804 184.938 306.989 184.363 307.359 183.938C307.734 183.508 308.239 183.293 308.874 183.293C309.509 183.293 310.012 183.506 310.382 183.931C310.757 184.356 310.944 184.933 310.944 185.663V186.593C310.944 186.993 310.877 187.373 310.742 187.733C310.612 188.088 310.429 188.383 310.194 188.618C310.459 188.873 310.664 189.193 310.809 189.578C310.959 189.958 311.034 190.363 311.034 190.793V192.083C311.034 192.838 310.839 193.441 310.449 193.891C310.059 194.336 309.534 194.558 308.874 194.558ZM308.874 193.073C309.069 193.073 309.202 192.991 309.272 192.826C309.347 192.656 309.384 192.343 309.384 191.888V190.771C309.384 190.281 309.347 189.946 309.272 189.766C309.202 189.581 309.069 189.488 308.874 189.488C308.679 189.488 308.547 189.578 308.477 189.758C308.407 189.933 308.372 190.271 308.372 190.771V191.888C308.372 192.338 308.407 192.648 308.477 192.818C308.552 192.988 308.684 193.073 308.874 193.073ZM308.874 187.898C308.994 187.898 309.089 187.853 309.159 187.763C309.229 187.673 309.279 187.526 309.309 187.321C309.339 187.111 309.354 186.831 309.354 186.481V185.753C309.354 185.358 309.319 185.088 309.249 184.943C309.184 184.793 309.059 184.718 308.874 184.718C308.694 184.718 308.569 184.791 308.499 184.936C308.434 185.081 308.402 185.353 308.402 185.753V186.481C308.402 186.836 308.417 187.118 308.447 187.328C308.477 187.533 308.524 187.681 308.589 187.771C308.659 187.856 308.754 187.898 308.874 187.898ZM317.036 194.558C316.376 194.558 315.851 194.336 315.461 193.891C315.071 193.441 314.876 192.838 314.876 192.083V190.793C314.876 190.363 314.949 189.958 315.094 189.578C315.244 189.193 315.451 188.873 315.716 188.618C315.481 188.383 315.296 188.088 315.161 187.733C315.031 187.373 314.966 186.993 314.966 186.593V185.663C314.966 184.938 315.151 184.363 315.521 183.938C315.896 183.508 316.401 183.293 317.036 183.293C317.671 183.293 318.174 183.506 318.544 183.931C318.919 184.356 319.106 184.933 319.106 185.663V186.593C319.106 186.993 319.039 187.373 318.904 187.733C318.774 188.088 318.591 188.383 318.356 188.618C318.621 188.873 318.826 189.193 318.971 189.578C319.121 189.958 319.196 190.363 319.196 190.793V192.083C319.196 192.838 319.001 193.441 318.611 193.891C318.221 194.336 317.696 194.558 317.036 194.558ZM317.036 193.073C317.231 193.073 317.364 192.991 317.434 192.826C317.509 192.656 317.546 192.343 317.546 191.888V190.771C317.546 190.281 317.509 189.946 317.434 189.766C317.364 189.581 317.231 189.488 317.036 189.488C316.841 189.488 316.709 189.578 316.639 189.758C316.569 189.933 316.534 190.271 316.534 190.771V191.888C316.534 192.338 316.569 192.648 316.639 192.818C316.714 192.988 316.846 193.073 317.036 193.073ZM317.036 187.898C317.156 187.898 317.251 187.853 317.321 187.763C317.391 187.673 317.441 187.526 317.471 187.321C317.501 187.111 317.516 186.831 317.516 186.481V185.753C317.516 185.358 317.481 185.088 317.411 184.943C317.346 184.793 317.221 184.718 317.036 184.718C316.856 184.718 316.731 184.791 316.661 184.936C316.596 185.081 316.564 185.353 316.564 185.753V186.481C316.564 186.836 316.579 187.118 316.609 187.328C316.639 187.533 316.686 187.681 316.751 187.771C316.821 187.856 316.916 187.898 317.036 187.898Z" fill="#FF0000"/>
<rect x="214" y="183.438" width="48" height="20" fill="#272727"/>
<path d="M220.23 200.59C219.394 200.59 218.729 200.308 218.235 199.745C217.741 199.175 217.494 198.411 217.494 197.455V195.821C217.494 195.276 217.586 194.763 217.77 194.282C217.96 193.794 218.222 193.389 218.558 193.066C218.26 192.768 218.026 192.395 217.855 191.945C217.69 191.489 217.608 191.008 217.608 190.501V189.323C217.608 188.405 217.842 187.676 218.311 187.138C218.786 186.593 219.426 186.321 220.23 186.321C221.034 186.321 221.671 186.59 222.14 187.129C222.615 187.667 222.852 188.398 222.852 189.323V190.501C222.852 191.008 222.767 191.489 222.596 191.945C222.431 192.395 222.2 192.768 221.902 193.066C222.238 193.389 222.497 193.794 222.681 194.282C222.871 194.763 222.966 195.276 222.966 195.821V197.455C222.966 198.411 222.719 199.175 222.225 199.745C221.731 200.308 221.066 200.59 220.23 200.59ZM220.23 198.709C220.477 198.709 220.645 198.605 220.734 198.396C220.829 198.18 220.876 197.784 220.876 197.208V195.793C220.876 195.172 220.829 194.748 220.734 194.52C220.645 194.285 220.477 194.168 220.23 194.168C219.983 194.168 219.815 194.282 219.727 194.51C219.638 194.732 219.594 195.159 219.594 195.793V197.208C219.594 197.778 219.638 198.171 219.727 198.386C219.822 198.601 219.989 198.709 220.23 198.709ZM220.23 192.154C220.382 192.154 220.502 192.097 220.591 191.983C220.68 191.869 220.743 191.682 220.781 191.423C220.819 191.157 220.838 190.802 220.838 190.359V189.437C220.838 188.937 220.794 188.595 220.705 188.411C220.623 188.221 220.464 188.126 220.23 188.126C220.002 188.126 219.844 188.218 219.755 188.402C219.673 188.585 219.632 188.93 219.632 189.437V190.359C219.632 190.808 219.651 191.166 219.689 191.432C219.727 191.692 219.787 191.879 219.869 191.993C219.958 192.1 220.078 192.154 220.23 192.154ZM231.709 200.59C230.873 200.59 230.208 200.308 229.714 199.745C229.22 199.175 228.973 198.411 228.973 197.455V195.821C228.973 195.276 229.065 194.763 229.248 194.282C229.438 193.794 229.701 193.389 230.037 193.066C229.739 192.768 229.505 192.395 229.334 191.945C229.169 191.489 229.087 191.008 229.087 190.501V189.323C229.087 188.405 229.321 187.676 229.79 187.138C230.265 186.593 230.904 186.321 231.709 186.321C232.513 186.321 233.15 186.59 233.618 187.129C234.093 187.667 234.331 188.398 234.331 189.323V190.501C234.331 191.008 234.245 191.489 234.074 191.945C233.91 192.395 233.678 192.768 233.381 193.066C233.716 193.389 233.976 193.794 234.16 194.282C234.35 194.763 234.445 195.276 234.445 195.821V197.455C234.445 198.411 234.198 199.175 233.704 199.745C233.21 200.308 232.545 200.59 231.709 200.59ZM231.709 198.709C231.956 198.709 232.124 198.605 232.212 198.396C232.307 198.18 232.355 197.784 232.355 197.208V195.793C232.355 195.172 232.307 194.748 232.212 194.52C232.124 194.285 231.956 194.168 231.709 194.168C231.462 194.168 231.294 194.282 231.205 194.51C231.117 194.732 231.072 195.159 231.072 195.793V197.208C231.072 197.778 231.117 198.171 231.205 198.386C231.3 198.601 231.468 198.709 231.709 198.709ZM231.709 192.154C231.861 192.154 231.981 192.097 232.07 191.983C232.158 191.869 232.222 191.682 232.26 191.423C232.298 191.157 232.317 190.802 232.317 190.359V189.437C232.317 188.937 232.272 188.595 232.184 188.411C232.101 188.221 231.943 188.126 231.709 188.126C231.481 188.126 231.322 188.218 231.234 188.402C231.151 188.585 231.11 188.93 231.11 189.437V190.359C231.11 190.808 231.129 191.166 231.167 191.432C231.205 191.692 231.265 191.879 231.348 191.993C231.436 192.1 231.557 192.154 231.709 192.154ZM243.187 200.59C242.351 200.59 241.686 200.308 241.192 199.745C240.698 199.175 240.451 198.411 240.451 197.455V195.821C240.451 195.276 240.543 194.763 240.727 194.282C240.917 193.794 241.18 193.389 241.515 193.066C241.218 192.768 240.983 192.395 240.812 191.945C240.648 191.489 240.565 191.008 240.565 190.501V189.323C240.565 188.405 240.8 187.676 241.268 187.138C241.743 186.593 242.383 186.321 243.187 186.321C243.992 186.321 244.628 186.59 245.097 187.129C245.572 187.667 245.809 188.398 245.809 189.323V190.501C245.809 191.008 245.724 191.489 245.553 191.945C245.388 192.395 245.157 192.768 244.859 193.066C245.195 193.389 245.455 193.794 245.638 194.282C245.828 194.763 245.923 195.276 245.923 195.821V197.455C245.923 198.411 245.676 199.175 245.182 199.745C244.688 200.308 244.023 200.59 243.187 200.59ZM243.187 198.709C243.434 198.709 243.602 198.605 243.691 198.396C243.786 198.18 243.833 197.784 243.833 197.208V195.793C243.833 195.172 243.786 194.748 243.691 194.52C243.602 194.285 243.434 194.168 243.187 194.168C242.94 194.168 242.773 194.282 242.684 194.51C242.595 194.732 242.551 195.159 242.551 195.793V197.208C242.551 197.778 242.595 198.171 242.684 198.386C242.779 198.601 242.947 198.709 243.187 198.709ZM243.187 192.154C243.339 192.154 243.46 192.097 243.548 191.983C243.637 191.869 243.7 191.682 243.738 191.423C243.776 191.157 243.795 190.802 243.795 190.359V189.437C243.795 188.937 243.751 188.595 243.662 188.411C243.58 188.221 243.422 188.126 243.187 188.126C242.959 188.126 242.801 188.218 242.712 188.402C242.63 188.585 242.589 188.93 242.589 189.437V190.359C242.589 190.808 242.608 191.166 242.646 191.432C242.684 191.692 242.744 191.879 242.826 191.993C242.915 192.1 243.035 192.154 243.187 192.154ZM254.666 200.59C253.83 200.59 253.165 200.308 252.671 199.745C252.177 199.175 251.93 198.411 251.93 197.455V195.821C251.93 195.276 252.022 194.763 252.206 194.282C252.396 193.794 252.658 193.389 252.994 193.066C252.696 192.768 252.462 192.395 252.291 191.945C252.126 191.489 252.044 191.008 252.044 190.501V189.323C252.044 188.405 252.278 187.676 252.747 187.138C253.222 186.593 253.862 186.321 254.666 186.321C255.47 186.321 256.107 186.59 256.576 187.129C257.051 187.667 257.288 188.398 257.288 189.323V190.501C257.288 191.008 257.203 191.489 257.032 191.945C256.867 192.395 256.636 192.768 256.338 193.066C256.674 193.389 256.933 193.794 257.117 194.282C257.307 194.763 257.402 195.276 257.402 195.821V197.455C257.402 198.411 257.155 199.175 256.661 199.745C256.167 200.308 255.502 200.59 254.666 200.59ZM254.666 198.709C254.913 198.709 255.081 198.605 255.17 198.396C255.265 198.18 255.312 197.784 255.312 197.208V195.793C255.312 195.172 255.265 194.748 255.17 194.52C255.081 194.285 254.913 194.168 254.666 194.168C254.419 194.168 254.251 194.282 254.163 194.51C254.074 194.732 254.03 195.159 254.03 195.793V197.208C254.03 197.778 254.074 198.171 254.163 198.386C254.258 198.601 254.425 198.709 254.666 198.709ZM254.666 192.154C254.818 192.154 254.938 192.097 255.027 191.983C255.116 191.869 255.179 191.682 255.217 191.423C255.255 191.157 255.274 190.802 255.274 190.359V189.437C255.274 188.937 255.23 188.595 255.141 188.411C255.059 188.221 254.9 188.126 254.666 188.126C254.438 188.126 254.28 188.218 254.191 188.402C254.109 188.585 254.068 188.93 254.068 189.437V190.359C254.068 190.808 254.087 191.166 254.125 191.432C254.163 191.692 254.223 191.879 254.305 191.993C254.394 192.1 254.514 192.154 254.666 192.154Z" fill="#FF0000"/>
<path d="M297 202.438H312V214.438C312 218.304 308.866 221.438 305 221.438H304C300.134 221.438 297 218.304 297 214.438V202.438Z" fill="#E2E2E2"/>
<circle cx="304.5" cy="213.938" r="7.25" fill="black" stroke="white" stroke-width="0.5"/>
<rect x="303" y="206.438" width="3" height="9" rx="1.5" fill="white"/>
<circle cx="238" cy="214.438" r="3" fill="#C4C4C4"/>
<circle cx="238" cy="214.438" r="2" fill="#6D6D6D"/>
<circle cx="238" cy="214.438" r="1" fill="#C9C9C9"/>
<rect x="459" y="286.438" width="3" height="26" rx="1.5" fill="#393939"/>
<rect x="459" y="383.438" width="3" height="26" rx="1.5" fill="#393939"/>
<rect x="184" y="361.438" width="22" height="8" rx="2" transform="rotate(-90 184 361.438)" fill="#C4C4C4"/>
<rect x="184" y="346.438" width="51" height="7" rx="2" fill="#484848"/>
<rect x="3" y="204.438" width="141" height="121" fill="#686868"/>
<rect y="200.438" width="147" height="9" rx="2" fill="#484848"/>
<circle cx="45" cy="209.438" r="5" fill="#C4C4C4"/>
<circle cx="45" cy="209.438" r="3" fill="#545454"/>
<circle cx="119" cy="299.438" r="5" fill="#C4C4C4"/>
<circle cx="119" cy="299.438" r="3" fill="#545454"/>
<rect x="61" y="214.438" width="32" height="32" fill="#424242"/>
<circle cx="77" cy="229.438" r="13.5" stroke="white"/>
<circle cx="77" cy="229.438" r="11.5" stroke="white"/>
<circle cx="77" cy="229.438" r="9.5" stroke="white"/>
<circle cx="77" cy="229.438" r="5.5" stroke="white"/>
<line x1="61.3536" y1="214.085" x2="93.3536" y2="246.085" stroke="white"/>
<line x1="60.6464" y1="246.085" x2="92.6464" y2="214.085" stroke="white"/>
<circle cx="30" cy="303.438" r="15" fill="#C4C4C4"/>
<circle cx="30" cy="303.438" r="9" fill="#1D1D1D"/>
<rect x="144" y="321.438" width="34" height="4" fill="#686868"/>
<rect x="144" y="324.438" width="34" height="4" fill="#282828"/>
<rect x="147" y="328.438" width="28" height="4" fill="#DADADA"/>
<path d="M149.25 332.688H172.75V388.438C172.75 392.166 169.728 395.188 166 395.188H156C152.272 395.188 149.25 392.166 149.25 388.438V332.688Z" fill="#C4C4C4" stroke="black" stroke-width="0.5"/>
<circle cx="161" cy="329.438" r="5" fill="#C4C4C4"/>
<circle cx="161" cy="329.438" r="3" fill="#545454"/>
<path d="M3 325.438H144V455.438H127.5V425.438V395.438V341.438H19.5V417.938H127.5V436.938H19.5V455.438H3V325.438Z" fill="#4237C1"/>
<rect x="148" y="303.438" width="27" height="18" rx="2" fill="#2D2D2D"/>
<rect x="159" y="317.438" width="6" height="3" rx="1" fill="black"/>
<rect x="160" y="319.438" width="4" height="1" rx="0.5" fill="white"/>
<g filter="url(#filter0_d_55_340)">
<path d="M119.113 489.672H122.834L128.312 505.331L133.791 489.672H137.512L129.807 511H126.818L119.113 489.672ZM117.106 489.672H120.812L121.486 504.936V511H117.106V489.672ZM135.812 489.672H139.533V511H135.139V504.936L135.812 489.672ZM152.321 493.319L146.521 511H141.848L149.772 489.672H152.746L152.321 493.319ZM157.141 511L151.325 493.319L150.856 489.672H153.859L161.828 511H157.141ZM156.877 503.061V506.503H145.612V503.061H156.877ZM149.846 488.471L152.717 483.959H157.302L153.273 488.471H149.846ZM164.802 489.672L169.255 499.398L173.708 489.672H178.498L171.481 503.236V511H167.028V503.236L159.997 489.672H164.802ZM196.662 489.672V511H192.282V489.672H196.662ZM203.225 489.672V493.114H185.822V489.672H203.225ZM212.819 493.319L207.019 511H202.346L210.271 489.672H213.244L212.819 493.319ZM217.639 511L211.823 493.319L211.354 489.672H214.357L222.326 511H217.639ZM217.375 503.061V506.503H206.11V503.061H217.375ZM210.065 514.354C210.065 513.788 210.28 513.314 210.71 512.934C211.14 512.562 211.716 512.377 212.438 512.377C213.151 512.377 213.723 512.562 214.152 512.934C214.592 513.314 214.812 513.788 214.812 514.354C214.812 514.911 214.592 515.38 214.152 515.761C213.723 516.142 213.151 516.332 212.438 516.332C211.716 516.332 211.14 516.142 210.71 515.761C210.28 515.38 210.065 514.911 210.065 514.354ZM226.311 489.672H230.031L235.51 505.331L240.988 489.672H244.709L237.004 511H234.016L226.311 489.672ZM224.304 489.672H228.01L228.684 504.936V511H224.304V489.672ZM243.01 489.672H246.73V511H242.336V504.936L243.01 489.672ZM275.412 489.672V511H271.018L262.448 496.703V511H258.054V489.672H262.448L271.032 503.983V489.672H275.412ZM296.14 499.853V508.305C295.808 508.705 295.295 509.14 294.602 509.608C293.908 510.067 293.015 510.463 291.921 510.795C290.827 511.127 289.504 511.293 287.951 511.293C286.574 511.293 285.319 511.068 284.187 510.619C283.054 510.16 282.077 509.491 281.257 508.612C280.446 507.733 279.821 506.659 279.382 505.39C278.942 504.11 278.723 502.65 278.723 501.01V499.677C278.723 498.036 278.933 496.576 279.353 495.297C279.782 494.018 280.393 492.938 281.184 492.06C281.975 491.181 282.917 490.512 284.011 490.053C285.104 489.594 286.32 489.364 287.658 489.364C289.514 489.364 291.037 489.667 292.229 490.272C293.42 490.868 294.328 491.698 294.953 492.763C295.588 493.817 295.979 495.028 296.125 496.396H291.862C291.755 495.673 291.55 495.043 291.247 494.506C290.944 493.969 290.51 493.549 289.943 493.246C289.387 492.943 288.664 492.792 287.775 492.792C287.043 492.792 286.389 492.943 285.812 493.246C285.246 493.539 284.768 493.974 284.377 494.55C283.986 495.126 283.688 495.839 283.483 496.688C283.278 497.538 283.176 498.524 283.176 499.647V501.01C283.176 502.123 283.283 503.109 283.498 503.969C283.713 504.818 284.03 505.536 284.45 506.122C284.88 506.698 285.407 507.133 286.032 507.426C286.657 507.719 287.385 507.865 288.215 507.865C288.908 507.865 289.484 507.807 289.943 507.689C290.412 507.572 290.788 507.431 291.071 507.265C291.364 507.089 291.589 506.923 291.745 506.767V502.987H287.731V499.853H296.14ZM318.713 488.485H321.496C321.496 489.921 321.311 491.146 320.939 492.162C320.568 493.168 319.929 493.939 319.021 494.477C318.122 495.004 316.877 495.268 315.285 495.268V492.997C316.32 492.997 317.082 492.821 317.57 492.47C318.059 492.108 318.371 491.591 318.508 490.917C318.645 490.243 318.713 489.433 318.713 488.485ZM311.462 489.672H315.842V503.764C315.842 505.404 315.49 506.786 314.787 507.909C314.094 509.032 313.132 509.877 311.901 510.443C310.681 511.01 309.274 511.293 307.683 511.293C306.091 511.293 304.675 511.01 303.435 510.443C302.204 509.877 301.237 509.032 300.534 507.909C299.841 506.786 299.494 505.404 299.494 503.764V489.672H303.889V503.764C303.889 504.721 304.04 505.502 304.343 506.107C304.646 506.713 305.08 507.157 305.646 507.44C306.223 507.724 306.901 507.865 307.683 507.865C308.483 507.865 309.162 507.724 309.719 507.44C310.285 507.157 310.715 506.713 311.008 506.107C311.311 505.502 311.462 504.721 311.462 503.764V489.672ZM307.463 483.783L310.349 488.295H306.892L302.878 483.783H307.463ZM338.43 489.672V511H334.035L325.466 496.703V511H321.071V489.672H325.466L334.05 503.983V489.672H338.43ZM359.157 499.853V508.305C358.825 508.705 358.312 509.14 357.619 509.608C356.926 510.067 356.032 510.463 354.938 510.795C353.845 511.127 352.521 511.293 350.969 511.293C349.592 511.293 348.337 511.068 347.204 510.619C346.071 510.16 345.095 509.491 344.274 508.612C343.464 507.733 342.839 506.659 342.399 505.39C341.96 504.11 341.74 502.65 341.74 501.01V499.677C341.74 498.036 341.95 496.576 342.37 495.297C342.8 494.018 343.41 492.938 344.201 492.06C344.992 491.181 345.935 490.512 347.028 490.053C348.122 489.594 349.338 489.364 350.676 489.364C352.531 489.364 354.055 489.667 355.246 490.272C356.438 490.868 357.346 491.698 357.971 492.763C358.605 493.817 358.996 495.028 359.143 496.396H354.88C354.772 495.673 354.567 495.043 354.265 494.506C353.962 493.969 353.527 493.549 352.961 493.246C352.404 492.943 351.682 492.792 350.793 492.792C350.061 492.792 349.406 492.943 348.83 493.246C348.264 493.539 347.785 493.974 347.395 494.55C347.004 495.126 346.706 495.839 346.501 496.688C346.296 497.538 346.193 498.524 346.193 499.647V501.01C346.193 502.123 346.301 503.109 346.516 503.969C346.73 504.818 347.048 505.536 347.468 506.122C347.897 506.698 348.425 507.133 349.05 507.426C349.675 507.719 350.402 507.865 351.232 507.865C351.926 507.865 352.502 507.807 352.961 507.689C353.43 507.572 353.806 507.431 354.089 507.265C354.382 507.089 354.606 506.923 354.763 506.767V502.987H350.749V499.853H359.157Z" fill="#FF0000"/>
</g>
</g>
<defs>
<filter id="filter0_d_55_340" x="113.106" y="483.783" width="250.051" height="40.5488" filterUnits="userSpaceOnUse" color-interpolation-filters="sRGB">
<feFlood flood-opacity="0" result="BackgroundImageFix"/>
<feColorMatrix in="SourceAlpha" type="matrix" values="0 0 0 0 0 0 0 0 0 0 0 0 0 0 0 0 0 0 127 0" result="hardAlpha"/>
<feOffset dy="4"/>
<feGaussianBlur stdDeviation="2"/>
<feComposite in2="hardAlpha" operator="out"/>
<feColorMatrix type="matrix" values="0 0 0 0 0 0 0 0 0 0 0 0 0 0 0 0 0 0 0.25 0"/>
<feBlend mode="normal" in2="BackgroundImageFix" result="effect1_dropShadow_55_340"/>
<feBlend mode="normal" in="SourceGraphic" in2="effect1_dropShadow_55_340" result="shape"/>
</filter>
<clipPath id="clip0_55_340">
<rect width="462" height="524" fill="white"/>
</clipPath>
</defs>
</svg>
